#!OML:ASF F:\VICON\USERDATA\INSTALL\Justin_Nancy\Justin_Nancy.ASF
:FULLY-SPECIFIED
:DEGREES
32
root 0.793983 17.6148 -25.5446 -3.41014 1.9632 -1.96481
lowerback 6.43006 -1.58223 0.291144
upperback 1.33854 -1.97816 4.4594
thorax -2.07407 -0.983837 4.6133
lowerneck -13.8876 -2.71721 -9.17069
upperneck 20.7605 -2.63521 4.42431
head 8.98623 -1.4922 2.72902
rclavicle 1.0138e-014 6.36111e-015
rhumerus -38.658 -24.2265 -68.7914
rradius 21.3105
rwrist 16.6648
rhand -15.5819 18.3916
rfingers 7.12502
rthumb 10.6035 -11.3209
lclavicle 1.0138e-014 6.36111e-015
lhumerus -26.107 5.10186 88.6333
lradius 29.6742
lwrist -9.64582
lhand -16.9321 28.5335
lfingers 7.12502
lthumb 9.30089 58.3083
rfemur -13.0201 2.78407 25.3287
rtibia 19.5444
rfoot 0.472714 -3.4765
rtoes 0.992178
lfemur -3.6203 -2.84095 -17.9757
ltibia 60.7883
lfoot 20.0169 -2.70216
ltoes 5.4447
33
root 0.767276 17.6326 -25.3739 -3.58256 2.04129 -2.02132
lowerback 6.63542 -1.48754 0.255773
upperback 1.27201 -1.84644 4.41907
thorax -2.26783 -0.91479 4.59003
lowerneck -13.5272 -2.84965 -9.13274
upperneck 20.6988 -2.89606 4.56802
head 8.91882 -1.59943 2.74216
rclavicle -1.77912e-014 2.46493e-014
rhumerus -38.476 -23.9051 -69.1782
rradius 21.7718
rwrist 16.3763
rhand -15.5088 16.9273
rfingers 7.12502
rthumb 10.674 -12.7816
lclavicle -1.77912e-014 2.46493e-014
lhumerus -26.3956 4.94382 88.6823
lradius 28.9651
lwrist -10.4727
lhand -15.6849 26.7248
lfingers 7.12502
lthumb 10.5041 56.4424
rfemur -11.9705 3.02585 25.5657
rtibia 19.2234
rfoot 0.0364581 -3.91461
rtoes 0.713085
lfemur -4.68497 -2.81003 -17.8424
ltibia 62.3122
lfoot 17.5841 -2.12421
ltoes 0.470633
34
root 0.746189 17.6527 -25.219 -3.64808 1.83174 -2.08745
lowerback 6.88223 -1.32065 0.312204
upperback 1.23844 -1.61265 4.363
thorax -2.46154 -0.795771 4.48915
lowerneck -13.3672 -3.00906 -9.09948
upperneck 20.6171 -3.16994 4.7007
head 8.88293 -1.71216 2.74962
rclavicle 1.53064e-014 -2.14687e-014
rhumerus -37.929 -24.4999 -69.1134
rradius 21.471
rwrist 17.3928
rhand -15.0729 13.5579
rfingers 7.12502
rthumb 11.0944 -16.1288
lclavicle 1.53064e-014 -2.14687e-014
lhumerus -26.5177 4.80884 88.7157
lradius 28.1563
lwrist -10.9744
lhand -12.2695 25.2551
lfingers 7.12502
lthumb 13.7972 54.7776
rfemur -11.2014 3.16767 25.8288
rtibia 19.0404
rfoot -0.476801 -4.12112
rtoes 1.2275
lfemur -6.02253 -2.50648 -17.7124
ltibia 63.6612
lfoot 16.2016 -1.82432
ltoes -1.07753
35
root 0.730129 17.6708 -25.0604 -3.56589 1.85808 -2.15301
lowerback 6.7051 -1.28798 0.38514
upperback 1.37749 -1.57382 4.38781
thorax -2.22311 -0.780671 4.46136
lowerneck -13.972 -3.0423 -9.33488
upperneck 21.0214 -3.17127 4.96375
head 9.14231 -1.70165 2.88078
rclavicle 1.50082e-014 -1.90833e-014
rhumerus -37.1897 -23.3915 -70.0979
rradius 22.3995
rwrist 16.4415
rhand -13.7502 3.91636
rfingers 7.12502
rthumb 12.37 -25.6977
lclavicle 1.50082e-014 -1.90833e-014
lhumerus -26.4136 5.13582 88.8115
lradius 27.4879
lwrist -11.6207
lhand -17.4009 23.3906
lfingers 7.12502
lthumb 8.84853 53.1851
rfemur -10.569 3.15645 26.0228
rtibia 18.8375
rfoot -1.01147 -4.42502
rtoes 1.84368
lfemur -7.5732 -2.44293 -17.6369
ltibia 64.855
lfoot 14.6425 -1.66408
ltoes -4.71146
36
root 0.715046 17.6869 -24.8948 -3.56077 1.93088 -2.19883
lowerback 6.3847 -1.24326 0.557798
upperback 1.58184 -1.52274 4.28329
thorax -1.84461 -0.761346 4.23524
lowerneck -14.6213 -2.97123 -9.33306
upperneck 21.615 -3.10102 5.29443
head 9.4675 -1.63259 3.00995
rclavicle 2.45996e-014 -4.13472e-014
rhumerus -36.3285 -23.136 -70.8435
rradius 22.7273
rwrist 15.9565
rhand -14.8111 12.5315
rfingers 7.12502
rthumb 11.3469 -17.1416
lclavicle 2.45996e-014 -4.13472e-014
lhumerus -26.3374 5.1368 88.8285
lradius 26.9094
lwrist -12.1276
lhand -19.2337 21.2374
lfingers 7.12502
lthumb 7.07952 51.099
rfemur -9.77809 3.2582 26.2003
rtibia 18.596
rfoot -1.51695 -4.81737
rtoes 2.43624
lfemur -8.85206 -2.48291 -17.5894
ltibia 65.8619
lfoot 12.1777 -1.43336
ltoes -10.1959
37
root 0.693773 17.7003 -24.7346 -3.61132 1.83228 -2.35947
lowerback 6.36782 -1.14541 0.71072
upperback 1.5046 -1.38061 4.23769
thorax -1.92963 -0.689344 4.09096
lowerneck -13.9076 -3.27815 -9.16276
upperneck 20.9664 -3.5854 5.13077
head 9.14278 -1.86382 2.85855
rclavicle 1.19271e-014 7.95139e-016
rhumerus -35.8618 -22.8966 -71.226
rradius 22.6995
rwrist 15.656
rhand -14.9815 15.3293
rfingers 7.12502
rthumb 11.1826 -14.3527
lclavicle 1.19271e-014 7.95139e-016
lhumerus -26.8261 5.09958 88.8084
lradius 26.4991
lwrist -12.6207
lhand -17.7666 23.2524
lfingers 7.12502
lthumb 8.4956 53.0615
rfemur -8.95886 3.50813 26.5569
rtibia 18.3357
rfoot -1.91322 -5.14518
rtoes 2.34858
lfemur -10.0456 -2.34474 -17.3346
ltibia 66.7167
lfoot 8.60799 -1.12648
ltoes -17.3349
38
root 0.671748 17.7095 -24.5836 -3.63277 1.91021 -2.45128
lowerback 6.48753 -1.14819 0.707037
upperback 1.37338 -1.37522 4.23901
thorax -2.13215 -0.683917 4.10005
lowerneck -13.8055 -3.06462 -9.16189
upperneck 21.4503 -3.34435 5.27407
head 9.27347 -1.74313 2.94562
rclavicle 6.95746e-016 3.97569e-015
rhumerus -35.4956 -22.2529 -71.6708
rradius 22.9724
rwrist 15.2928
rhand -15.0161 14.2923
rfingers 7.12502
rthumb 11.1493 -15.3915
lclavicle 6.95746e-016 3.97569e-015
lhumerus -27.4119 5.5116 88.7176
lradius 26.2059
lwrist -13.2148
lhand -14.2258 27.6263
lfingers 7.12502
lthumb 11.9113 57.2675
rfemur -8.29368 3.62503 26.8264
rtibia 18.1679
rfoot -2.19174 -5.4838
rtoes 1.77662
lfemur -11.3327 -2.35491 -17.1708
ltibia 67.4024
lfoot 11.0071 -1.71235
ltoes -0.240401
39
root 0.658177 17.712 -24.4329 -3.69396 1.77519 -2.45469
lowerback 6.57789 -1.08387 0.753524
upperback 1.42497 -1.28591 4.21566
thorax -2.13671 -0.63988 4.04363
lowerneck -13.8016 -3.1462 -9.2378
upperneck 21.2398 -3.42695 5.24257
head 9.20794 -1.78861 2.93412
rclavicle -1.68967e-014 -2.54444e-014
rhumerus -34.8708 -21.3625 -72.3385
rradius 23.4403
rwrist 14.652
rhand -15.3099 12.6526
rfingers 7.12502
rthumb 10.8658 -17.0462
lclavicle -1.68967e-014 -2.54444e-014
lhumerus -27.6331 5.90275 88.7109
lradius 25.7507
lwrist -13.4407
lhand -12.3378 28.9947
lfingers 7.12502
lthumb 13.7315 58.5216
rfemur -7.5965 3.70021 26.9705
rtibia 18.0741
rfoot -2.68604 -5.81677
rtoes 0.966662
lfemur -12.4735 -2.23572 -17.1795
ltibia 67.9345
lfoot 6.29403 -1.1361
ltoes -15.1553
40
root 0.653491 17.7083 -24.2769 -3.79506 1.22771 -2.40443
lowerback 6.71547 -0.852327 0.874807
upperback 1.46881 -0.968822 4.10651
thorax -2.19251 -0.482102 3.83731
lowerneck -13.8167 -3.18541 -9.21401
upperneck 21.2137 -3.49292 5.27666
head 9.20698 -1.81326 2.93338
rclavicle -1.75427e-014 3.18055e-015
rhumerus -34.3116 -20.6562 -72.9577
rradius 23.852
rwrist 13.9357
rhand -15.3365 12.4817
rfingers 7.12502
rthumb 10.8402 -17.2185
lclavicle -1.75427e-014 3.18055e-015
lhumerus -27.9186 6.22969 88.6064
lradius 25.3081
lwrist -13.7592
lhand -12.1495 28.6977
lfingers 7.12502
lthumb 13.9129 58.2123
rfemur -6.90292 3.81215 27.0436
rtibia 18.0867
rfoot -3.40629 -5.92652
rtoes -0.721815
lfemur -13.4586 -1.79255 -17.2905
ltibia 68.2783
lfoot 6.58405 -1.33285
ltoes -9.6921
41
root 0.647346 17.7054 -24.1244 -3.93047 0.797108 -2.43038
lowerback 6.85981 -0.655364 0.960472
upperback 1.52847 -0.698856 4.06661
thorax -2.22909 -0.347944 3.72632
lowerneck -13.706 -3.28992 -9.07865
upperneck 21.0819 -3.64827 5.15039
head 9.14852 -1.88829 2.8466
rclavicle -1.16786e-014 3.4191e-014
rhumerus -33.7904 -19.5654 -73.6796
rradius 24.4616
rwrist 12.7324
rhand -15.0489 11.4477
rfingers 7.12502
rthumb 11.1176 -18.2378
lclavicle -1.16786e-014 3.4191e-014
lhumerus -28.2199 6.65792 88.5195
lradius 25.0432
lwrist -14.5599
lhand -11.1799 29.1039
lfingers 7.12502
lthumb 14.8471 58.552
rfemur -6.20888 3.89712 27.2086
rtibia 18.1389
rfoot -4.12015 -5.90404
rtoes -2.6656
lfemur -14.4951 -1.37821 -17.2851
ltibia 68.4721
lfoot 5.99442 -1.42614
ltoes -7.61909
42
root 0.632262 17.7083 -23.9779 -3.91373 0.607331 -2.36082
lowerback 6.81122 -0.467966 0.893532
upperback 1.58294 -0.460053 3.97375
thorax -2.15972 -0.229195 3.64522
lowerneck -13.5072 -3.46134 -8.97489
upperneck 20.7575 -3.91862 5.14128
head 9.01863 -2.0065 2.79068
rclavicle -7.95139e-015 1.82882e-014
rhumerus -33.3485 -18.6607 -74.3574
rradius 25.1498
rwrist 11.5721
rhand -14.8655 10.2257
rfingers 7.12502
rthumb 11.2944 -19.4502
lclavicle -7.95139e-015 1.82882e-014
lhumerus -28.3134 6.70476 88.4877
lradius 24.6636
lwrist -15.105
lhand -10.6863 28.6695
lfingers 7.12502
lthumb 15.3227 58.0818
rfemur -5.73064 4.00274 27.2826
rtibia 18.303
rfoot -4.90902 -5.78927
rtoes -3.89268
lfemur -15.6532 -1.13054 -17.3512
ltibia 68.5228
lfoot 4.84139 -1.36671
ltoes -7.86196
43
root 0.612603 17.7091 -23.8372 -3.69274 0.574325 -2.56636
lowerback 6.66371 -0.386576 1.06719
upperback 1.62083 -0.346081 3.97389
thorax -2.04592 -0.173807 3.535
lowerneck -13.8887 -3.49261 -8.90714
upperneck 20.8862 -3.95104 5.16396
head 9.13498 -2.00963 2.78114
rclavicle -3.03147e-015 -4.29375e-014
rhumerus -32.6676 -17.6544 -75.1342
rradius 25.8413
rwrist 10.5072
rhand -15.2258 10.9774
rfingers 7.12502
rthumb 10.947 -18.7172
lclavicle -3.03147e-015 -4.29375e-014
lhumerus -28.3157 6.59695 88.5213
lradius 24.1616
lwrist -14.9602
lhand -11.3299 27.9048
lfingers 7.12502
lthumb 14.7026 57.3635
rfemur -5.51401 4.19397 27.6645
rtibia 18.4959
rfoot -5.68149 -5.89459
rtoes -4.68978
lfemur -17.0419 -0.964881 -17.0576
ltibia 68.4825
lfoot 3.56547 -1.28902
ltoes -9.06628
44
root 0.597041 17.7011 -23.7026 -3.58523 0.394571 -2.8461
lowerback 6.8672 -0.308881 1.40715
upperback 1.5412 -0.207748 3.98176
thorax -2.25026 -0.105101 3.34252
lowerneck -14.055 -3.51631 -8.95574
upperneck 20.9485 -3.96319 5.18362
head 9.18999 -2.01529 2.79369
rclavicle -2.38542e-015 8.74653e-015
rhumerus -32.0148 -16.8845 -75.7157
rradius 26.1925
rwrist 10.0707
rhand -15.8286 12.0476
rfingers 7.12502
rthumb 10.3655 -17.6769
lclavicle -2.38542e-015 8.74653e-015
lhumerus -28.6562 6.6065 88.4889
lradius 23.8207
lwrist -14.7912
lhand -11.7762 28.0188
lfingers 7.12502
lthumb 14.2726 57.5083
rfemur -5.25631 4.39868 28.1269
rtibia 18.7099
rfoot -6.12785 -5.93884
rtoes -3.98275
lfemur -18.3575 -0.689818 -16.6904
ltibia 68.2973
lfoot 2.32271 -1.17449
ltoes -9.71338
45
root 0.589651 17.6934 -23.5617 -3.55704 0.0318986 -2.95581
lowerback 6.93913 -0.206846 1.62315
upperback 1.44198 -0.0503506 3.94311
thorax -2.40068 -0.0272182 3.16796
lowerneck -13.7181 -3.44998 -9.0467
upperneck 20.9026 -3.90528 5.29569
head 9.11091 -1.98802 2.85764
rclavicle 6.95746e-016 7.15625e-015
rhumerus -31.564 -16.2406 -76.0595
rradius 26.3215
rwrist 10.1187
rhand -15.8002 12.7684
rfingers 7.12502
rthumb 10.3929 -16.9547
lclavicle 6.95746e-016 7.15625e-015
lhumerus -29.2515 6.68171 88.4508
lradius 23.7675
lwrist -14.1663
lhand -11.7027 28.6059
lfingers 7.12502
lthumb 14.3435 58.0904
rfemur -4.98568 4.54534 28.3533
rtibia 19.0226
rfoot -6.25573 -5.98539
rtoes -0.491893
lfemur -19.4132 -0.37055 -16.5733
ltibia 67.9918
lfoot 1.4752 -0.891143
ltoes -8.46095
46
root 0.582219 17.686 -23.4119 -3.55237 -0.272911 -2.98688
lowerback 6.78072 -0.0962364 1.75927
upperback 1.49034 0.0956667 3.86596
thorax -2.26831 0.0442751 2.9963
lowerneck -13.8236 -3.23615 -9.2151
upperneck 21.3633 -3.64866 5.62989
head 9.27779 -1.8494 3.03972
rclavicle 2.03754e-015 -1.03368e-014
rhumerus -31.1041 -15.3883 -76.5329
rradius 26.7609
rwrist 9.74057
rhand -15.6983 12.8002
rfingers 7.12502
rthumb 10.4912 -16.918
lclavicle 2.03754e-015 -1.03368e-014
lhumerus -29.5496 6.77628 88.3883
lradius 23.5671
lwrist -13.3795
lhand -11.9047 28.6743
lfingers 7.12502
lthumb 14.1488 58.1725
rfemur -4.70565 4.65155 28.5003
rtibia 19.524
rfoot -6.68999 -6.21019
rtoes 1.82781
lfemur -20.2754 -0.0692416 -16.5718
ltibia 67.5404
lfoot 0.903989 -0.502952
ltoes -6.78485
